<svg id="Capa_1" enable-background="new 0 0 512 512" height="512" viewBox="0 0 512 512" width="512" xmlns="http://www.w3.org/2000/svg" xmlns:xlink="http://www.w3.org/1999/xlink"><linearGradient id="SVGID_1_" gradientUnits="userSpaceOnUse" x1="150.191" x2="437.766" y1="361.509" y2="73.934"><stop offset="0" stop-color="#ffbef9"/><stop offset="1" stop-color="#fff1ff"/></linearGradient><linearGradient id="SVGID_2_" gradientUnits="userSpaceOnUse" x1="25.606" x2="459.238" y1="486.395" y2="52.762"><stop offset="0" stop-color="#a93aff"/><stop offset="1" stop-color="#ff81ff"/></linearGradient><g><g><g><path d="m331.7 30c-82.843 0-150 67.157-150 150 0 40.801 16.298 77.79 42.729 104.832-5.885-4.575-14.381-4.171-19.79 1.237l-54.346 54.331c-5.859 5.859-5.859 15.352 0 21.211 5.86 5.86 15.351 5.858 21.211 0l54.346-54.331c5.414-5.414 5.814-13.922 1.224-19.808 27.024 26.313 63.928 42.528 104.626 42.528 82.843 0 150-67.157 150-150s-67.158-150-150-150z" fill="url(#SVGID_1_)"/></g></g><g><g><path d="m150.293 319.189c-5.859-5.859-15.352-5.859-21.211 0l-124.687 124.784c-5.859 5.859-5.859 15.352 0 21.211l42.422 42.422c5.86 5.859 15.352 5.859 21.211 0l124.688-124.783c5.859-5.859 5.859-15.352 0-21.211zm181.707-319.189c-99.302 0-180 80.7-180 180s80.698 180 180 180 180-80.7 180-180-80.698-180-180-180zm0 300c-66.299 0-120-53.701-120-120 0-66.301 53.701-120 120-120 65.999 0 120 53.699 120 120 0 66.299-54.001 120-120 120z" fill="url(#SVGID_2_)"/></g></g></g></svg>