<?xml version="1.0" standalone="no"?>
<!DOCTYPE svg PUBLIC "-//W3C//DTD SVG 20010904//EN"
 "http://www.w3.org/TR/2001/REC-SVG-20010904/DTD/svg10.dtd">
<svg version="1.0" xmlns="http://www.w3.org/2000/svg"
 width="1800.000000pt" height="1800.000000pt" viewBox="0 0 1800.000000 1800.000000"
 preserveAspectRatio="xMidYMid meet">
<metadata>
Created by potrace 1.14, written by Peter Selinger 2001-2017
</metadata>
<g transform="translate(0.000000,1800.000000) scale(0.100000,-0.100000)"
fill="#000000" stroke="none">
<path d="M2149 17996 c-2 -2 -33 -6 -69 -10 -102 -9 -150 -16 -220 -32 -36 -8
-76 -17 -90 -20 -54 -11 -218 -63 -279 -88 -36 -14 -70 -26 -78 -26 -7 0 -13
-4 -13 -10 0 -5 -6 -10 -13 -10 -35 0 -277 -135 -402 -223 -138 -99 -177 -132
-312 -266 -219 -219 -364 -437 -513 -776 -20 -45 -80 -237 -82 -262 -1 -7 -5
-13 -10 -13 -5 0 -7 -4 -4 -8 3 -4 0 -28 -6 -53 -11 -46 -18 -85 -20 -106 -1
-7 -4 -13 -7 -13 -3 0 -6 -15 -7 -33 -1 -17 -5 -66 -10 -107 -11 -90 -12
-13763 -2 -13865 4 -38 11 -90 14 -115 4 -25 7 -56 8 -70 1 -14 4 -27 8 -30 3
-3 8 -18 11 -35 3 -16 8 -37 11 -45 3 -8 7 -28 10 -45 2 -16 14 -59 25 -94 12
-35 18 -68 14 -74 -3 -5 -1 -7 5 -3 9 5 29 -47 24 -66 -1 -3 5 -12 13 -18 8
-7 15 -19 15 -27 0 -8 18 -52 40 -99 22 -47 40 -89 40 -95 0 -5 5 -9 11 -9 5
0 8 -4 4 -9 -3 -5 -1 -12 5 -16 5 -3 17 -23 27 -43 9 -20 19 -39 23 -42 13
-12 113 -176 113 -187 0 -7 4 -10 8 -8 4 3 26 -21 50 -53 24 -31 49 -62 57
-68 9 -7 12 -16 7 -24 -5 -8 -4 -11 2 -7 14 9 77 -59 68 -72 -3 -6 -2 -10 3
-9 14 5 151 -125 145 -137 -4 -5 -3 -7 2 -3 13 12 47 -12 41 -28 -3 -9 -2 -12
5 -9 12 8 51 -24 43 -36 -3 -5 1 -6 9 -3 9 3 22 -4 31 -18 9 -12 16 -19 16
-15 0 4 30 -15 66 -43 37 -27 74 -50 82 -50 8 0 12 -6 9 -14 -4 -11 -1 -13 10
-9 11 4 14 3 9 -6 -4 -6 -4 -11 1 -10 22 4 41 -3 61 -21 12 -11 24 -20 28 -19
3 1 24 -9 47 -22 23 -13 79 -40 125 -60 45 -19 80 -37 78 -40 -3 -3 3 -5 12
-6 18 0 113 -34 122 -43 5 -5 9 -6 48 -14 78 -15 113 -30 107 -45 -5 -13 -4
-14 6 -4 14 14 43 18 36 6 -3 -5 7 -8 21 -9 15 0 43 -4 62 -8 19 -4 53 -10 75
-13 22 -3 43 -11 47 -17 5 -8 8 -7 8 2 0 7 4 11 9 7 5 -3 24 -8 43 -12 48 -10
13829 -10 13918 0 41 5 98 13 125 19 28 5 61 11 75 14 14 3 43 10 64 15 22 6
49 12 60 14 12 1 29 6 38 10 9 4 22 3 29 -1 7 -4 9 -3 6 3 -4 7 8 14 29 18 20
3 45 12 56 18 15 10 21 9 29 -3 9 -13 10 -12 5 2 -3 12 0 18 10 18 8 0 33 9
54 20 22 11 40 18 40 15 0 -9 336 167 365 192 28 24 83 52 90 45 5 -4 5 -2 1
5 -4 7 6 19 24 29 16 10 30 22 30 27 0 5 7 6 16 3 8 -3 13 -2 10 3 -8 12 42
43 56 35 7 -5 8 -3 3 5 -4 8 2 21 14 33 19 17 24 18 39 6 15 -12 16 -11 4 4
-12 15 -9 20 27 45 22 15 40 34 41 41 0 9 8 11 22 8 13 -3 17 -3 11 0 -19 8
-16 24 4 24 9 0 14 3 11 6 -4 3 22 35 55 71 34 36 74 79 89 94 14 16 24 29 20
29 -3 0 4 10 15 22 11 13 26 33 32 46 7 12 16 20 22 17 5 -4 8 -3 7 2 -3 7 57
110 72 123 3 3 14 22 25 42 10 20 22 35 25 33 3 -2 7 5 7 16 1 10 11 32 22 48
12 16 21 31 21 34 0 3 15 38 34 79 43 91 86 201 86 216 0 7 4 12 10 12 5 0 6
7 3 17 -5 12 -3 14 7 8 9 -5 11 -4 6 4 -4 6 2 41 13 76 12 35 21 71 21 80 0 9
3 14 8 12 4 -3 7 7 8 21 0 15 6 56 12 92 6 36 14 83 17 105 4 22 9 51 13 65
10 36 12 13773 2 13850 -4 36 -12 92 -16 125 -4 33 -7 70 -7 83 1 12 -3 22 -8
22 -5 0 -9 9 -9 20 0 28 -43 191 -74 279 -14 40 -23 78 -19 84 3 5 1 7 -4 4
-6 -4 -14 4 -17 18 -4 14 -22 59 -41 100 -19 41 -35 76 -35 79 0 12 -183 311
-200 326 -3 3 -20 25 -38 50 -74 103 -254 289 -381 393 -47 38 -167 125 -191
137 -14 7 -27 16 -30 20 -8 10 -158 93 -250 137 -191 93 -472 178 -657 198
-32 4 -78 11 -103 16 -42 8 -13752 13 -13761 5z"/>
<path d="M16270 39 c0 -5 5 -7 10 -4 6 3 10 8 10 11 0 2 -4 4 -10 4 -5 0 -10
-5 -10 -11z"/>
</g>
</svg>
