<svg version="1.1" xmlns="http://www.w3.org/2000/svg" xmlns:xlink="http://www.w3.org/1999/xlink" width="182.6868896484375" height="25.029998779296875"><defs></defs><g transform="translate(-93.75814056396484,14.849998474121094)"><rect fill="rgb(255,255,255)" stroke="none" x="0" y="0" width="182.6868896484375" height="25.029998779296875" fill-opacity="0" transform="translate(93.75814056396484,-14.849998474121094)"></rect><g transform="translate(91.73426295100042,13) rotate(0,0,0) translate(-91.73426295100042,-13) matrix(1,0,0.017455064928217585,1,91.73426295100042,13)"><path fill="rgb(0,0,0)" fill-opacity="1" d="M19.95-17.94L19.95-17.94Q20.58-17.94 20.58-17.16L20.58-17.16Q20.58-16.32 19.90-15.59L19.90-15.59Q18.71-14.27 17.71-12.27L17.71-12.27Q16.20-9.25 16.20-6.82L16.20-6.82Q16.20-5.87 16.54-5.44Q16.88-5.01 17.31-5.01L17.31-5.01Q18.60-5.01 20.33-7.11L20.33-7.11Q21.87-9.08 22.68-10.95L22.68-10.95Q22.90-11.38 23.11-11.33Q23.33-11.27 23.14-10.84L23.14-10.84Q22.03-8.38 20.63-6.52L20.63-6.52Q19.90-5.52 18.82-4.86Q17.74-4.20 16.67-4.20Q15.61-4.20 15.07-5.05Q14.53-5.90 14.53-7.06Q14.53-8.22 14.81-9.35Q15.09-10.49 15.55-11.11L15.55-11.11Q12.83-7.84 9.75-5.87L9.75-5.87Q8.13-4.87 6.16-4.68L6.16-4.68Q5.97-4.66 5.52-4.66Q5.08-4.66 4.46-4.98L4.46-4.98Q2.51-5.79 2.51-8.94Q2.51-12.08 4.56-15.75L4.56-15.75Q5.64-17.70 6.94-19.18L6.94-19.18Q5.13-20.05 4.24-21.05L4.24-21.05Q3.59-21.77 3.59-22.80Q3.59-23.83 4.00-24.10L4.00-24.10Q4.27-24.45 4.48-24.23L4.48-24.23Q4.65-23.99 4.50-23.64Q4.35-23.29 4.35-22.96L4.35-22.96Q4.35-22.23 5.13-21.34Q5.91-20.45 7.43-19.75L7.43-19.75Q13.77-26.80 20.60-26.80L20.60-26.80Q22.74-26.80 23.99-25.84Q25.25-24.88 25.25-23.37L25.25-23.37Q25.25-21.72 23.41-20.18L23.41-20.18Q22.49-19.37 20.79-18.78L20.79-18.78Q18.20-17.86 14.62-17.86Q11.04-17.86 8.70-18.62L8.70-18.62Q5.97-14.75 4.94-12.20Q3.92-9.65 3.92-8.25L3.92-8.25Q3.92-7.95 3.94-7.71L3.94-7.71Q4.27-5.47 6.21-5.47L6.21-5.47Q8.40-5.47 11.29-7.84L11.29-7.84Q13.34-9.57 15.31-11.95Q17.28-14.32 18.24-16.13Q19.20-17.94 19.95-17.94ZM24.14-23.69L24.14-23.69Q24.14-24.85 23.18-25.47Q22.22-26.09 20.55-26.09Q18.87-26.09 17.21-25.55Q15.55-25.01 14.11-23.96Q12.66-22.91 11.54-21.80Q10.42-20.69 9.13-19.16L9.13-19.16Q11.15-18.51 14.10-18.51L14.10-18.51Q19.63-18.51 22.17-20.29L22.17-20.29Q24.14-21.67 24.14-23.69ZM35.56-14.78L35.56-14.78Q32.27-8.92 32.27-7.22L32.27-7.22Q32.27-6.47 32.78-6.47L32.78-6.47Q33.43-6.47 34.26-7.44L34.26-7.44Q35.53-8.98 36.48-11.14L36.48-11.14Q36.64-11.51 36.80-11.43Q36.96-11.35 36.96-11.22Q36.96-11.08 36.69-10.54Q36.42-10.00 36.26-9.68Q36.10-9.35 35.55-8.44Q34.99-7.52 34.60-7.09Q34.21-6.65 33.60-6.24Q33.00-5.82 32.23-5.82Q31.46-5.82 30.92-6.57L30.92-6.57Q30.67-6.92 30.67-7.53Q30.67-8.14 30.94-9.00Q31.21-9.87 32.43-11.81L32.43-11.81Q32.73-12.30 32.73-12.58Q32.73-12.86 32.28-12.86Q31.83-12.86 30.67-11.78Q29.51-10.70 28.23-8.87Q26.95-7.03 26.70-5.93L26.70-5.93Q26.25-5.93 26.03-6.30Q25.81-6.68 25.81-6.95L25.81-6.95Q25.81-8.06 27.30-11.16L27.30-11.16Q27.78-12.19 27.81-12.55Q27.84-12.92 27.72-12.93Q27.60-12.95 27.38-12.84L27.38-12.84Q26.89-12.59 25.89-11.65L25.89-11.65Q24.00-9.92 22.17-6.38L22.17-6.38Q22.03-6.09 21.83-6.02Q21.63-5.95 21.03-5.93Q20.44-5.90 20.25-5.79L20.25-5.79Q20.74-6.74 21.95-9.33L21.95-9.33Q24.14-13.97 24.87-14.67L24.87-14.67Q25.19-15.00 25.76-15.00L25.76-15.00Q25.87-15.00 26.31-14.92Q26.76-14.84 26.97-14.89L26.97-14.89Q25.98-14.35 23.71-9.81L23.71-9.81Q24.98-11.38 25.53-11.87Q26.08-12.35 26.35-12.59Q26.62-12.84 26.77-12.97Q26.92-13.11 27.20-13.36Q27.49-13.62 27.64-13.74Q27.78-13.86 28.05-14.08Q28.32-14.29 28.47-14.36Q28.62-14.43 28.88-14.59Q29.13-14.75 29.26-14.75Q29.38-14.75 29.59-14.82Q29.81-14.89 29.89-14.78L29.89-14.78Q30.43-14.57 30.43-14.11L30.43-14.11Q30.43-13.70 29.51-12.03Q28.59-10.35 28.32-9.81L28.32-9.81Q29.51-11.30 30.59-12.26Q31.67-13.21 33.14-14.03Q34.62-14.84 35.29-14.84L35.29-14.84Q35.45-14.84 35.56-14.78ZM40.18-16.43Q39.80-16.10 39.34-16.10Q38.88-16.10 38.61-16.43Q38.34-16.75 38.40-17.21L38.40-17.21Q38.48-17.67 38.85-17.99Q39.23-18.32 39.69-18.32Q40.15-18.32 40.43-17.99Q40.72-17.67 40.64-17.21Q40.56-16.75 40.18-16.43ZM37.53-6.52L37.53-6.52Q38.04-6.52 38.61-7.03L38.61-7.03Q39.61-8.03 41.15-11.11L41.15-11.11Q41.34-11.51 41.53-11.35L41.53-11.35Q41.58-11.30 41.58-11.18Q41.58-11.05 41.37-10.58Q41.15-10.11 40.97-9.73Q40.80-9.35 40.30-8.50Q39.80-7.65 39.39-7.19L39.39-7.19Q38.29-5.93 37.30-5.93Q36.32-5.93 35.88-6.52Q35.45-7.11 35.45-7.84Q35.45-8.57 35.80-9.44L35.80-9.44L37.53-13.84Q37.59-14.00 37.59-14.27Q37.59-14.54 37.26-14.97L37.26-14.97L38.75-15.00Q39.37-15.00 39.48-14.77Q39.58-14.54 39.31-14.05L39.31-14.05L37.15-9.00Q36.69-8.00 36.69-7.30L36.69-7.30Q36.69-6.52 37.53-6.52ZM40.50-8.09L40.50-8.09Q40.50-10.33 42.66-15.59L42.66-15.59L41.26-15.59Q41.12-15.59 41.08-15.74Q41.04-15.89 41.11-16.04Q41.18-16.19 41.31-16.19L41.31-16.19L42.93-16.19Q43.90-18.32 44.74-19.75Q45.58-21.18 46.28-21.68Q46.98-22.18 47.29-22.18Q47.60-22.18 47.74-22.13L47.74-22.13Q48.36-21.83 48.36-20.90Q48.36-19.96 47.74-18.64Q47.12-17.32 46.52-16.19L46.52-16.19L47.82-16.19Q47.95-16.19 47.99-16.04Q48.03-15.89 47.97-15.74Q47.90-15.59 47.76-15.59L47.76-15.59L46.20-15.59Q44.71-13.08 42.61-11.14L42.61-11.14L41.99-8.38Q41.91-8.03 41.91-7.69Q41.91-7.36 42.09-7.01Q42.28-6.65 42.69-6.65L42.69-6.65Q43.15-6.65 43.71-6.98L43.71-6.98Q45.01-7.95 46.58-11.05L46.58-11.05Q46.68-11.30 46.83-11.35Q46.98-11.41 47.01-11.28Q47.04-11.16 46.93-10.89L46.93-10.89Q46.04-9.03 45.52-8.25L45.52-8.25Q44.07-5.90 42.42-5.90L42.42-5.90Q41.58-5.90 41.04-6.52Q40.50-7.14 40.50-8.09ZM44.58-16.19L45.93-16.19Q47.71-19.37 47.71-20.61L47.71-20.61Q47.71-21.15 47.52-21.15L47.52-21.15Q47.22-21.15 46.62-20.29Q46.01-19.43 44.58-16.19L44.58-16.19ZM45.58-15.59L45.58-15.59L44.31-15.59Q43.98-14.84 42.85-12L42.85-12Q44.31-13.51 45.58-15.59ZM62.16-6.90L62.16-6.90Q59.64-4.87 56.59-4.87L56.59-4.87Q53.11-4.87 52.30-6.82L52.30-6.82Q52.11-7.28 52.11-7.88Q52.11-8.49 52.73-9.19L52.73-9.19Q53.70-10.30 55.43-10.30L55.43-10.30Q56.59-10.30 57.77-9.88Q58.94-9.46 61.94-7.87L61.94-7.87Q63.29-9.17 64.64-11.33Q65.99-13.48 66.98-15.50Q67.96-17.51 69.38-19.88Q70.80-22.26 72.20-23.83L72.20-23.83Q69.18-25.64 65.77-25.64L65.77-25.64Q64.37-25.64 62.91-25.34L62.91-25.34Q58.73-24.45 56.54-21.69L56.54-21.69Q55.19-20.02 55.19-18.51L55.19-18.51Q55.19-16.45 57.16-15.83L57.16-15.83Q57.86-15.65 58.38-15.65Q58.89-15.65 59.52-15.81Q60.16-15.97 60.78-16.56L60.78-16.56Q61.97-17.75 62.05-18.78L62.05-18.78Q62.07-19.02 62.36-18.95Q62.64-18.88 62.59-18.53L62.59-18.53Q62.32-16.56 60.51-15.54L60.51-15.54Q59.40-14.94 58.29-14.94L58.29-14.94L56.89-15.19Q54.84-15.89 54.19-17.80L54.19-17.80Q53.92-18.53 53.92-19.26L53.92-19.26Q53.92-20.75 55.03-22.21L55.03-22.21Q57.40-25.39 63.45-26.28L63.45-26.28Q64.64-26.45 65.80-26.45L65.80-26.45Q69.55-26.45 72.96-24.66L72.96-24.66Q74.01-25.88 74.90-26.51Q75.79-27.15 76.33-27.15L76.33-27.15Q76.63-27.15 76.68-27.03Q76.74-26.90 76.67-26.84Q76.60-26.77 76.49-26.77L76.49-26.77Q76.03-26.77 75.30-25.80Q74.58-24.82 74.12-23.99L74.12-23.99Q77.01-22.07 78.52-19.07L78.52-19.07Q79.73-16.67 79.73-13.84L79.73-13.84Q79.73-10.33 78.06-8.25L78.06-8.25Q76.68-6.55 74.71-5.84L74.71-5.84Q72.36-5.01 70.07-5.01L70.07-5.01Q65.42-5.01 62.16-6.90ZM62.80-7.38L62.80-7.38Q65.53-5.76 69.20-5.76L69.20-5.76Q73.47-5.76 76.01-8.19L76.01-8.19Q78.03-10.16 78.03-13.65L78.03-13.65Q78.03-16.13 77.06-18.32L77.06-18.32Q75.84-21.10 73.47-22.96L73.47-22.96Q72.69-21.75 70.46-18.06Q68.23-14.38 66.69-12.08Q65.15-9.79 64.26-8.83Q63.37-7.87 62.80-7.38ZM61.24-7.33L61.24-7.33Q58.08-8.84 57.24-9.14Q56.40-9.44 55.61-9.44Q54.81-9.44 54.34-8.84Q53.87-8.25 53.87-7.77Q53.87-7.30 54.08-6.87L54.08-6.87Q54.65-5.71 56.40-5.71L56.40-5.71Q59.00-5.71 61.24-7.33ZM83.94-5.87Q83.57-5.55 83.11-5.55Q82.65-5.55 82.41-5.83Q82.16-6.11 82.16-6.33L82.16-6.33Q82.16-7.06 82.59-7.41Q83.03-7.76 83.49-7.76Q83.94-7.76 84.19-7.48Q84.43-7.19 84.43-6.98Q84.43-6.76 84.38-6.48Q84.32-6.20 83.94-5.87ZM103.65-15.59L103.65-15.59Q103.65-17.45 101.90-17.45L101.90-17.45Q101.66-17.45 101.31-17.41Q100.95-17.37 100.82-17.59L100.82-17.59Q100.60-17.89 101.52-17.99L101.52-17.99Q101.85-18.05 102.17-18.05L102.17-18.05Q103.74-18.05 104.30-16.70L104.30-16.70Q104.55-16.13 104.55-15.25Q104.55-14.38 103.79-13.05L103.79-13.05Q102.47-10.65 99.63-9.46L99.63-9.46Q98.69-9.06 97.67-9.06Q96.66-9.06 95.58-9.57L95.58-9.57Q93.58-10.52 92.80-12.73L92.80-12.73Q92.50-13.59 92.50-14.90Q92.50-16.21 93.23-18.21L93.23-18.21Q94.91-22.13 98.74-24.88L98.74-24.88Q102.84-27.85 106.41-27.85L106.41-27.85Q109.43-27.85 110.46-25.42L110.46-25.42Q110.92-24.37 110.92-22.88L110.92-22.88Q110.92-22.39 110.86-21.88L110.86-21.88Q110.59-19.53 109.46-16.51L109.46-16.51Q109.27-16.00 109.27-15.82Q109.27-15.65 109.35-15.65L109.35-15.65Q109.49-15.62 109.81-16.21L109.81-16.21Q111.81-19.86 114.21-22.75L114.21-22.75Q114.99-23.69 116.10-24.29L116.10-24.29Q117.32-24.93 118.28-24.93Q119.23-24.93 119.79-24.23Q120.34-23.53 120.34-22.37L120.34-22.37Q120.34-19.64 118.21-13.27L118.21-13.27Q117.78-12 117.67-11.65L117.67-11.65Q119.85-15.08 123.16-19.20Q126.47-23.31 129.03-24.07L129.03-24.07Q129.49-24.20 129.84-24.20L129.84-24.20Q130.87-24.20 131.17-23.18L131.17-23.18Q131.28-22.83 131.28-22.37L131.28-22.37Q131.28-20.99 130.20-18.83L130.20-18.83Q127.98-14.40 127.17-11.78L127.17-11.78Q126.06-8.33 126.06-7.06Q126.06-5.79 126.31-4.95L126.31-4.95Q126.79-3.28 128.87-3.28L128.87-3.28Q128.98-3.28 129.32-3.29Q129.66-3.31 129.70-3.17Q129.74-3.04 129.51-2.93Q129.28-2.82 129.05-2.82Q128.82-2.82 128.68-2.85L128.68-2.85Q124.42-3.28 124.42-7.22L124.42-7.22Q124.42-8.65 125.00-10.47Q125.58-12.30 125.98-13.27L125.98-13.27Q126.63-14.84 128.71-19.40L128.71-19.40Q129.44-21.10 129.44-21.99Q129.44-22.88 128.68-22.88L128.68-22.88Q127.63-22.88 125.42-20.72L125.42-20.72Q124.28-19.59 122.96-17.95Q121.64-16.32 119.04-12.23Q116.45-8.14 115.75-6.47L115.75-6.47Q115.13-5.01 114.10-5.01L114.10-5.01Q113.37-5.01 113.24-5.52L113.24-5.52Q113.16-5.74 113.24-5.86Q113.32-5.98 113.75-6.76Q114.18-7.55 114.64-8.41Q115.10-9.27 115.74-10.76Q116.37-12.24 116.91-13.78L116.91-13.78Q118.21-17.59 118.67-21.61L118.67-21.61Q118.72-22.07 118.72-22.76Q118.72-23.45 118.36-23.85Q117.99-24.26 117.59-24.26L117.59-24.26Q116.26-24.26 114.67-22.26L114.67-22.26Q112.51-19.59 110.92-17.01Q109.32-14.43 108.47-12.68Q107.62-10.92 106.50-8.45Q105.38-5.98 105.32-5.82Q105.25-5.66 105.13-5.41Q105.00-5.17 104.92-4.95L104.92-4.95Q104.57-4.17 103.41-4.17L103.41-4.17Q102.74-4.17 102.68-4.60L102.68-4.60Q102.68-4.68 102.71-4.79L102.71-4.79Q104.49-7.55 106.65-13.13L106.65-13.13Q109.41-20.21 109.41-23.45L109.41-23.45Q109.41-27.31 106.22-27.31L106.22-27.31Q104.17-27.31 101.05-25.34Q97.93-23.37 95.88-20.29L95.88-20.29Q95.07-19.07 94.66-17.94L94.66-17.94Q93.96-15.86 93.96-14.65L93.96-14.65Q93.96-11.16 96.28-10.06L96.28-10.06Q97.09-9.65 97.93-9.65L97.93-9.65Q100.85-9.65 102.71-12.81L102.71-12.81Q103.65-14.40 103.65-15.59ZM130.63-10.08L130.63-10.08Q130.25-9.17 130.25-8.03L130.25-8.03Q130.25-7.28 130.59-6.83Q130.92-6.38 131.55-6.38L131.55-6.38Q134.00-6.38 136.00-11.00L136.00-11.00Q136.19-11.43 136.46-11.38L136.46-11.38Q136.57-11.35 136.57-11.24Q136.57-11.14 135.96-9.83Q135.35-8.52 134.73-7.71L134.73-7.71Q133.35-5.82 131.33-5.82L131.33-5.82Q130.25-5.82 129.49-6.52Q128.74-7.22 128.74-8.44Q128.74-9.65 129.32-11.01Q129.90-12.38 130.90-13.55Q131.90-14.73 133.19-15.27L133.19-15.27Q133.81-15.54 134.38-15.54Q134.95-15.54 135.43-15.21L135.43-15.21Q135.89-14.84 135.89-14.38L135.89-14.38Q135.89-12.76 133.95-11.27L133.95-11.27Q133.35-10.81 132.27-10.45Q131.19-10.08 130.63-10.08ZM135.16-14.40L135.16-14.40Q135.16-14.94 134.73-14.94L134.73-14.94Q133.98-14.94 132.44-13.08L132.44-13.08Q131.52-11.95 130.82-10.54L130.82-10.54Q131.28-10.54 132.15-10.87Q133.03-11.19 133.68-11.73L133.68-11.73Q135.16-13.00 135.16-14.40ZM139.70-16.75L139.70-16.75Q139.70-15.54 138.16-14.46L138.16-14.46Q138.70-14.43 139.61-14.43Q140.51-14.43 141.89-14.57L141.89-14.57Q141.94-14.48 141.94-14.13Q141.94-13.78 141.62-13.09Q141.29-12.41 141.04-11.91Q140.78-11.41 140.55-10.96Q140.32-10.52 140.04-9.87Q139.75-9.22 139.56-8.68L139.56-8.68Q138.89-6.63 139.78-6.63L139.78-6.63Q140.91-6.63 143.13-11.14L143.13-11.14Q143.32-11.49 143.44-11.41Q143.56-11.33 143.56-11.20Q143.56-11.08 143.21-10.37Q142.86-9.65 142.45-8.89Q142.05-8.14 141.18-7.14L141.18-7.14Q140.16-5.90 139.21-5.90L139.21-5.90Q138.16-5.90 137.76-7.17L137.76-7.17Q137.67-7.41 137.67-7.90Q137.67-8.38 137.99-9.19Q138.30-10.00 138.97-11.16Q139.65-12.32 139.73-12.53Q139.81-12.73 139.81-12.92L139.81-12.92Q139.81-13.76 137.65-13.81L137.65-13.81L137.32-12.95Q135.62-8.49 134.06-6.98L134.06-6.98Q133.79-6.74 133.79-7.14L133.79-7.14Q133.79-7.22 133.84-7.33L133.84-7.33Q135.35-9.33 136.46-12.05Q137.57-14.78 138.00-17.24L138.00-17.24Q138.16-18.08 138.75-18.08Q139.35-18.08 139.62-17.32L139.62-17.32Q139.70-17.08 139.70-16.75ZM148.07-12.14L148.07-12.14Q149.01-13.27 149.01-14.05Q149.01-14.84 148.37-14.84L148.37-14.84Q147.10-14.84 145.48-12.51L145.48-12.51Q144.96-11.78 144.48-10.60Q143.99-9.41 143.99-8.45Q143.99-7.49 144.38-6.90Q144.78-6.30 145.60-6.30Q146.42-6.30 147.12-6.69Q147.83-7.09 148.46-7.94Q149.10-8.79 149.42-9.35Q149.74-9.92 150.31-11.05L150.31-11.05Q150.50-11.43 150.63-11.37Q150.77-11.30 150.77-11.18Q150.77-11.05 150.41-10.29Q150.04-9.52 149.68-8.84Q149.31-8.17 148.64-7.33L148.64-7.33Q147.42-5.82 145.32-5.82L145.32-5.82Q143.80-5.82 143.14-6.56Q142.48-7.30 142.48-8.27L142.48-8.27Q142.48-9.46 143.06-10.87Q143.64-12.27 144.40-13.30L144.40-13.30Q145.96-15.43 148.02-15.43L148.02-15.43Q149.01-15.43 149.46-14.96Q149.91-14.48 149.91-13.86L149.91-13.86Q149.91-12.95 149.15-12.30L149.15-12.30Q148.77-11.95 148.52-11.95Q148.26-11.95 148.07-12.14ZM154.93-7.14L154.93-7.14Q154.93-6.38 155.47-6.38L155.47-6.38Q156.74-6.38 159.06-11.14L159.06-11.14Q159.25-11.51 159.40-11.43Q159.54-11.35 159.54-11.22Q159.54-11.08 159.23-10.45Q158.92-9.81 158.61-9.23Q158.30-8.65 157.71-7.71L157.71-7.71Q156.47-5.82 155.06-5.82L155.06-5.82Q154.14-5.82 153.60-6.57L153.60-6.57Q153.36-6.92 153.36-7.53Q153.36-8.14 153.63-9.00Q153.90-9.87 155.12-11.81L155.12-11.81Q155.41-12.30 155.41-12.58Q155.41-12.86 154.95-12.86Q154.50-12.86 153.20-11.65L153.20-11.65Q151.26-9.87 149.42-6.30L149.42-6.30Q149.23-5.90 148.42-5.90L148.42-5.90Q147.69-5.84 147.50-5.74L147.50-5.74Q152.63-16.40 154.93-20.61L154.93-20.61Q155.44-21.56 155.83-21.94Q156.22-22.31 156.76-22.31L156.76-22.31Q156.90-22.31 157.33-22.25Q157.76-22.18 157.98-22.21L157.98-22.21Q157.17-21.37 155.08-17.58Q152.98-13.78 151.07-9.87L151.07-9.87Q152.34-11.46 153.35-12.35Q154.36-13.24 155.82-14.04Q157.28-14.84 157.95-14.84L157.95-14.84Q158.11-14.84 158.25-14.78L158.25-14.78Q154.93-8.95 154.93-7.14ZM167.29-13.24Q166.81-12.76 165.92-11.04Q165.03-9.33 164.85-8.48Q164.67-7.63 164.67-7.10Q164.67-6.57 165.08-6.57L165.08-6.57Q165.59-6.57 166.35-7.52L166.35-7.52Q167.46-8.89 168.54-11.11L168.54-11.11Q168.64-11.35 168.78-11.38L168.78-11.38Q168.99-11.46 168.99-11.22L168.99-11.22Q168.99-11.08 168.91-10.89L168.91-10.89Q166.43-5.87 164.73-5.87L164.73-5.87Q163.95-5.87 163.46-6.63L163.46-6.63Q163.22-7.03 163.22-7.71Q163.22-8.38 163.49-9.35L163.49-9.35Q161.33-5.87 159.76-5.87L159.76-5.87Q159.33-5.87 158.98-6.14L158.98-6.14Q158.17-6.71 158.17-8.09L158.17-8.09Q158.17-10.73 160.46-13.46L160.46-13.46Q161.76-14.97 163.65-15.43L163.65-15.43Q164.16-15.56 164.62-15.56L164.62-15.56Q165.86-15.56 166.73-14.70L166.73-14.70Q167.00-14.40 166.89-14.13Q166.78-13.86 166.43-13.92L166.43-13.92Q166.13-14.89 165.13-14.89L165.13-14.89Q163.97-14.89 162.27-13.05L162.27-13.05Q161.30-11.97 160.46-10.52L160.46-10.52Q159.41-8.76 159.41-7.71Q159.41-6.65 160.08-6.65L160.08-6.65Q161.70-6.65 164.32-11.62L164.32-11.62Q164.84-12.62 165.19-12.99Q165.54-13.35 166.08-13.35L166.08-13.35Q166.19-13.35 166.63-13.27Q167.08-13.19 167.29-13.24L167.29-13.24ZM176.69-14.78L176.69-14.78Q173.37-8.95 173.37-7.17L173.37-7.17Q173.37-6.47 173.88-6.47L173.88-6.47Q175.26-6.47 177.58-11.14L177.58-11.14Q177.74-11.51 177.90-11.43Q178.07-11.35 178.07-11.22Q178.07-11.08 177.96-10.89L177.96-10.89Q176.53-8.00 175.54-6.91Q174.56-5.82 173.57-5.82Q172.59-5.82 172.07-6.57L172.07-6.57Q171.80-6.92 171.80-7.53Q171.80-8.14 172.07-9.00Q172.34-9.87 173.56-11.81L173.56-11.81Q173.85-12.30 173.85-12.58Q173.85-12.86 173.40-12.86Q172.94-12.86 171.64-11.65L171.64-11.65Q169.70-9.87 167.89-6.30L167.89-6.30Q167.73-6.03 167.52-5.97Q167.32-5.90 166.73-5.87Q166.13-5.84 165.94-5.74L165.94-5.74Q166.38-6.60 167.64-9.27L167.64-9.27Q169.91-14.00 170.61-14.67L170.61-14.67Q170.94-15.00 171.51-15.00L171.51-15.00Q171.61-15.00 172.06-14.92Q172.50-14.84 172.72-14.89L172.72-14.89Q171.72-14.35 169.45-9.81L169.45-9.81Q170.72-11.38 171.76-12.31Q172.80-13.24 174.26-14.04Q175.72-14.84 176.39-14.84L176.39-14.84Q176.55-14.84 176.69-14.78ZM176.91-8.09L176.91-8.09Q176.91-10.33 179.07-15.59L179.07-15.59L177.66-15.59Q177.53-15.59 177.49-15.74Q177.45-15.89 177.51-16.04Q177.58-16.19 177.72-16.19L177.72-16.19L179.34-16.19Q180.31-18.32 181.14-19.75Q181.98-21.18 182.68-21.68Q183.39-22.18 183.70-22.18Q184.01-22.18 184.14-22.13L184.14-22.13Q184.76-21.83 184.76-20.90Q184.76-19.96 184.14-18.64Q183.52-17.32 182.93-16.19L182.93-16.19L184.22-16.19Q184.36-16.19 184.40-16.04Q184.44-15.89 184.37-15.74Q184.30-15.59 184.17-15.59L184.17-15.59L182.60-15.59Q181.12-13.08 179.01-11.14L179.01-11.14L178.39-8.38Q178.31-8.03 178.31-7.69Q178.31-7.36 178.50-7.01Q178.69-6.65 179.09-6.65L179.09-6.65Q179.55-6.65 180.12-6.98L180.12-6.98Q181.41-7.95 182.98-11.05L182.98-11.05Q183.09-11.30 183.24-11.35Q183.39-11.41 183.41-11.28Q183.44-11.16 183.33-10.89L183.33-10.89Q182.44-9.03 181.93-8.25L181.93-8.25Q180.47-5.90 178.82-5.90L178.82-5.90Q177.99-5.90 177.45-6.52Q176.91-7.14 176.91-8.09ZM180.98-16.19L182.33-16.19Q184.11-19.37 184.11-20.61L184.11-20.61Q184.11-21.15 183.93-21.15L183.93-21.15Q183.63-21.15 183.02-20.29Q182.41-19.43 180.98-16.19L180.98-16.19ZM181.98-15.59L181.98-15.59L180.71-15.59Q180.39-14.84 179.25-12L179.25-12Q180.71-13.51 181.98-15.59Z"></path></g></g></svg>